<svg width="119" height="44" viewBox="0 0 119 44" fill="none" xmlns="http://www.w3.org/2000/svg">
<path d="M7.9532 15.7406H5.8032V7.81557H8.8782V5.76557H5.8032V4.89057C5.8032 3.31557 6.6532 2.39057 7.8782 2.39057C8.4782 2.39057 8.8532 2.56557 9.4282 2.86557L10.1532 0.840574C9.4032 0.490574 8.5782 0.265573 7.8282 0.265573C5.2032 0.240574 3.3532 1.86557 3.3532 4.89057V5.76557H0.978198V7.81557H3.3532V15.7406H1.4032V17.9156H7.9532V15.7406Z" fill="#646464"/>
<path d="M12.9067 7.74057V15.7656H10.8817V17.9406H17.2817V15.7656H15.3817V11.1906C15.3817 8.81557 16.5067 7.76557 18.8067 7.71557C19.6817 7.71557 20.3067 7.99057 20.9817 8.44057L22.1067 6.31557C21.2567 5.69057 20.2567 5.29057 19.0067 5.29057C17.6317 5.29057 16.1817 5.64057 15.3317 6.84057L15.0317 5.54057H11.0067V7.74057H12.9067Z" fill="#646464"/>
<path d="M35.2714 16.0906L33.6464 14.5656C32.8714 15.4406 31.2964 15.9156 30.0214 15.9156C27.7214 15.9156 26.0464 14.5656 25.8464 12.7156H35.9964C36.4714 7.74057 33.7464 5.26557 29.8214 5.26557C26.0214 5.26557 23.3214 7.99057 23.3214 11.6906C23.3214 15.5906 25.9464 18.2156 29.9464 18.2156C31.8464 18.2156 33.9964 17.5156 35.2714 16.0906ZM33.6214 10.6656H25.8464C26.2464 8.64057 27.9964 7.49057 29.8964 7.49057C31.9964 7.49057 33.4714 8.61557 33.6214 10.6656Z" fill="#646464"/>
<path d="M53.4466 15.7156H51.4966V0.440573H47.1216V2.61557H49.0216V7.54057C48.1216 6.01557 46.2966 5.34057 44.6466 5.34057C41.1716 5.34057 38.4216 7.49057 38.4216 11.7656C38.4216 15.8906 41.1716 18.1406 44.6716 18.1406C46.4466 18.1406 48.0466 17.4156 49.0466 15.8906C49.0466 15.5656 49.3966 18.2656 49.3966 17.9406H53.4466V15.7156ZM44.9466 7.59057C47.0466 7.59057 48.9466 9.14057 48.9466 11.7406C48.9466 14.2906 46.8716 15.7906 44.8966 15.7906C42.6966 15.7906 40.8966 14.3156 40.8966 11.7406C40.8966 8.96557 42.7716 7.59057 44.9466 7.59057Z" fill="#646464"/>
<path d="M57.5708 7.74057V15.7656H55.5458V17.9406H61.9458V15.7656H60.0458V11.1906C60.0458 8.81557 61.1708 7.76557 63.4708 7.71557C64.3458 7.71557 64.9708 7.99057 65.6458 8.44057L66.7708 6.31557C65.9208 5.69057 64.9208 5.29057 63.6708 5.29057C62.2958 5.29057 60.8458 5.64057 59.9958 6.84057L59.6958 5.54057H55.6708V7.74057H57.5708Z" fill="#646464"/>
<path d="M71.5755 3.51557C72.3755 3.51557 73.1255 2.96557 73.1255 1.99057C73.1255 0.965573 72.3755 0.415573 71.5755 0.415573C70.7755 0.415573 70.0255 0.940574 70.0255 1.94057C70.0255 2.96557 70.7755 3.51557 71.5755 3.51557ZM72.7755 5.54057H68.4255V7.71557H70.3005V15.7156H68.3755V17.9406H74.6005V15.7156H72.7755V5.54057Z" fill="#646464"/>
<path d="M76.7083 2.66557H78.5833V15.7156H76.6583V17.9406H82.6583V15.7156H81.0083V13.2156L82.2333 12.2406L85.3583 16.5656V17.9406H89.8333V15.7156H87.7833L84.0833 10.7156L87.9083 7.61557H89.4333V5.56557H83.2083V7.54057L84.7083 7.61557L83.2083 8.79057L81.0083 10.7656V0.440573H76.7083V2.66557Z" fill="#646464"/>
<path d="M0.903198 42.9406H5.2032L5.3532 41.0656C6.2282 42.5406 8.0032 43.1406 9.6782 43.1406C13.2782 43.1656 16.0032 40.8906 16.0032 36.7656C16.0032 32.4656 13.2532 30.3406 9.7032 30.3406C8.1032 30.3406 6.0532 31.1406 5.3532 32.5406V25.4406H0.953198V27.6156H2.8782V40.7156H0.903198V42.9406ZM9.4782 32.6406C11.6782 32.6406 13.4782 34.0406 13.4782 36.7656C13.4782 39.3406 11.7282 40.8406 9.5282 40.8406C7.4282 40.8406 5.5032 39.3406 5.5032 36.7156C5.5032 34.1156 7.4782 32.6406 9.4782 32.6406Z" fill="#646464"/>
<path d="M33.6495 40.7406H31.7245V32.8156H33.5745V30.5656H29.3245L29.2995 32.4656C28.3745 31.0656 26.7495 30.3406 24.9995 30.3406C21.3995 30.3406 18.5495 32.7156 18.5495 36.7656C18.5495 40.8656 21.2995 43.2906 24.9495 43.2906C26.5245 43.2656 28.2495 42.8156 29.2245 41.2656C29.2245 40.9156 29.5245 43.2656 29.5245 42.9406H33.6495V40.7406ZM25.0745 32.7406C27.9745 32.7406 29.4745 34.6906 29.3745 37.0406C29.2745 39.1656 27.7245 41.0406 25.0745 41.0406C22.7745 41.0406 20.9995 39.3656 20.9995 36.8656C20.9995 34.3906 22.7995 32.7406 25.0745 32.7406Z" fill="#646464"/>
<path d="M38.0649 32.7406V40.7656H36.0399V42.9406H42.4399V40.7656H40.5399V36.1906C40.5399 33.8156 41.6649 32.7656 43.9649 32.7156C44.8399 32.7156 45.4649 32.9906 46.1399 33.4406L47.2649 31.3156C46.4149 30.6906 45.4149 30.2906 44.1649 30.2906C42.7899 30.2906 41.3399 30.6406 40.4899 31.8406L40.1899 30.5406H36.1649V32.7406H38.0649Z" fill="#646464"/>
<path d="M50.8696 32.7406V40.7656H48.8446V42.9406H55.2446V40.7656H53.3446V36.1906C53.3446 33.8156 54.4696 32.7656 56.7696 32.7156C57.6446 32.7156 58.2696 32.9906 58.9446 33.4406L60.0696 31.3156C59.2196 30.6906 58.2196 30.2906 56.9696 30.2906C55.5946 30.2906 54.1446 30.6406 53.2946 31.8406L52.9946 30.5406H48.9696V32.7406H50.8696Z" fill="#646464"/>
<path d="M76.3587 40.7156H74.4087V25.4406H70.0337V27.6156H71.9337V32.5406C71.0337 31.0156 69.2087 30.3406 67.5587 30.3406C64.0837 30.3406 61.3337 32.4906 61.3337 36.7656C61.3337 40.8906 64.0837 43.1406 67.5837 43.1406C69.3587 43.1406 70.9587 42.4156 71.9587 40.8906C71.9587 40.5656 72.3087 43.2656 72.3087 42.9406H76.3587V40.7156ZM67.8587 32.5906C69.9587 32.5906 71.8587 34.1406 71.8587 36.7406C71.8587 39.2906 69.7837 40.7906 67.8087 40.7906C65.6087 40.7906 63.8087 39.3156 63.8087 36.7406C63.8087 33.9656 65.6837 32.5906 67.8587 32.5906Z" fill="#646464"/>
<path d="M96.7483 27.5656V40.7906H94.7483V42.9406H101.148V40.7906H99.2233V36.5406C99.2233 34.4406 100.648 32.7906 102.848 32.7656C104.873 32.7406 106.098 34.0906 106.098 36.3656V40.7906H104.598V42.9406H110.473V40.7906H108.523V36.3156C108.523 32.8906 106.773 30.4406 103.273 30.4406C101.798 30.4406 100.248 30.9906 99.1983 32.3656V25.4156H94.8483V27.5656H96.7483Z" fill="#646464"/>
<path d="M112.024 25.4406V27.6406H113.924V40.7156H111.949V42.9406H118.224V40.7156H116.374V25.4406H112.024Z" fill="#646464"/>
<path d="M88.5079 42.9406V40.7406H92.6329V42.9406H88.5079Z" fill="#646464"/>
<path fill-rule="evenodd" clip-rule="evenodd" d="M85.3583 30.0411C85.3262 30.0408 85.2941 30.0406 85.2619 30.0406C81.4869 30.0406 78.8119 32.7906 78.8119 36.5406C78.8119 40.1906 81.4369 42.9406 85.2619 42.9406C85.2941 42.9406 85.3262 42.9404 85.3583 42.94V40.6146C85.3263 40.6153 85.2942 40.6156 85.2619 40.6156C82.8619 40.6156 81.2869 38.8406 81.2869 36.5406C81.2869 34.0406 82.9119 32.2906 85.2869 32.2906C85.3107 32.2906 85.3345 32.2908 85.3583 32.2911V30.0411Z" fill="#646464"/>
</svg>
