<svg width="260" height="103" viewBox="0 0 260 103" fill="none" xmlns="http://www.w3.org/2000/svg">
<g clip-path="url(#clip0)">
<path d="M117.731 36.7948V43.5198C117.731 43.7032 117.665 43.8615 117.531 43.9948C117.398 44.1282 117.24 44.1948 117.056 44.1948H112.181C111.998 44.1948 111.84 44.1282 111.706 43.9948C111.573 43.8615 111.506 43.7032 111.506 43.5198V27.1198C111.506 26.9365 111.573 26.7782 111.706 26.6448C111.84 26.5115 111.998 26.4448 112.181 26.4448H117.056C117.24 26.4448 117.398 26.5115 117.531 26.6448C117.665 26.7782 117.731 26.9365 117.731 27.1198V32.4948C118.681 31.4615 119.898 30.9448 121.381 30.9448C122.865 30.9448 124.09 31.4282 125.056 32.3948C126.023 33.3615 126.506 34.7698 126.506 36.6198V43.4948C126.506 43.6782 126.44 43.8365 126.306 43.9698C126.173 44.1032 126.015 44.1698 125.831 44.1698H120.931C120.748 44.1698 120.59 44.1032 120.456 43.9698C120.323 43.8365 120.256 43.6782 120.256 43.4948V36.7948C120.256 35.8782 119.831 35.4198 118.981 35.4198C118.148 35.4198 117.731 35.8782 117.731 36.7948ZM128.639 31.1948H132.864C133.247 31.1948 133.514 31.3948 133.664 31.7948L135.714 37.4948L137.839 31.7948C138.006 31.3948 138.289 31.1948 138.689 31.1948H142.864C143.014 31.1948 143.147 31.2532 143.264 31.3698C143.381 31.4698 143.439 31.5782 143.439 31.6948C143.439 31.8115 143.431 31.9032 143.414 31.9698L136.364 48.3448C136.197 48.7448 135.906 48.9448 135.489 48.9448H131.389C131.239 48.9448 131.106 48.8948 130.989 48.7948C130.889 48.6948 130.839 48.5698 130.839 48.4198C130.839 48.2865 130.847 48.2032 130.864 48.1698L132.864 43.3698L128.039 31.9698C128.022 31.9198 128.014 31.8615 128.014 31.7948C128.081 31.3948 128.289 31.1948 128.639 31.1948ZM159.529 36.7198V38.6948C159.529 40.5615 159.029 41.9865 158.029 42.9698C157.029 43.9532 155.804 44.4448 154.354 44.4448C152.921 44.4448 151.771 44.0532 150.904 43.2698V48.2698C150.904 48.4532 150.838 48.6115 150.704 48.7448C150.571 48.8782 150.413 48.9448 150.229 48.9448H145.604C145.421 48.9448 145.263 48.8782 145.129 48.7448C144.996 48.6115 144.929 48.4532 144.929 48.2698V31.8698C144.929 31.6865 144.996 31.5282 145.129 31.3948C145.263 31.2615 145.421 31.1948 145.604 31.1948H149.854C150.038 31.1948 150.196 31.2615 150.329 31.3948C150.463 31.5282 150.529 31.6865 150.529 31.8698V32.6198C151.396 31.5032 152.621 30.9448 154.204 30.9448C155.788 30.9448 157.071 31.4198 158.054 32.3698C159.038 33.3032 159.529 34.7532 159.529 36.7198ZM150.904 36.8698V38.7198C150.954 39.5532 151.371 39.9698 152.154 39.9698C152.988 39.9698 153.404 39.4865 153.404 38.5198V36.8698C153.404 35.9032 152.988 35.4198 152.154 35.4198C151.321 35.4198 150.904 35.9032 150.904 36.8698ZM174.853 39.1698H167.403V39.2948C167.403 40.3115 167.728 40.8198 168.378 40.8198C168.561 40.8198 168.786 40.6865 169.053 40.4198C169.319 40.1532 169.611 40.0198 169.928 40.0198H174.653C175.019 40.0198 175.203 40.2032 175.203 40.5698C175.203 41.3865 174.586 42.2365 173.353 43.1198C172.136 44.0032 170.478 44.4448 168.378 44.4448C166.294 44.4448 164.586 43.9032 163.253 42.8198C161.936 41.7198 161.278 40.2115 161.278 38.2948V37.0948C161.278 35.2782 161.953 33.8032 163.303 32.6698C164.653 31.5198 166.419 30.9448 168.603 30.9448C170.803 30.9448 172.503 31.5865 173.703 32.8698C174.919 34.1532 175.528 35.7782 175.528 37.7448V38.4948C175.528 38.6782 175.461 38.8365 175.328 38.9698C175.194 39.1032 175.036 39.1698 174.853 39.1698ZM169.403 35.9448C169.403 34.9448 169.069 34.4448 168.403 34.4448C167.736 34.4448 167.403 34.9448 167.403 35.9448V36.0448H169.403V35.9448ZM183.119 31.8698V32.7448C184.286 31.7115 185.586 31.1948 187.019 31.1948H188.219C188.402 31.1948 188.561 31.2615 188.694 31.3948C188.827 31.5282 188.894 31.6865 188.894 31.8698V35.7698C188.894 35.9532 188.827 36.1115 188.694 36.2448C188.561 36.3782 188.402 36.4448 188.219 36.4448H184.994C184.544 36.4448 184.186 36.5532 183.919 36.7698C183.669 36.9698 183.527 37.2448 183.494 37.5948V43.5198C183.494 43.7032 183.427 43.8615 183.294 43.9948C183.161 44.1282 183.002 44.1948 182.819 44.1948H178.069C177.886 44.1948 177.727 44.1282 177.594 43.9948C177.461 43.8615 177.394 43.7032 177.394 43.5198V31.8698C177.394 31.6865 177.461 31.5282 177.594 31.3948C177.727 31.2615 177.886 31.1948 178.069 31.1948H182.444C182.627 31.1948 182.786 31.2615 182.919 31.3948C183.052 31.5282 183.119 31.6865 183.119 31.8698ZM205.501 36.6948V38.6698C205.501 40.6365 205.009 42.0948 204.026 43.0448C203.043 43.9782 201.759 44.4448 200.176 44.4448C198.593 44.4448 197.368 43.8865 196.501 42.7698V43.5198C196.501 43.7032 196.434 43.8615 196.301 43.9948C196.168 44.1282 196.009 44.1948 195.826 44.1948H191.576C191.393 44.1948 191.234 44.1282 191.101 43.9948C190.968 43.8615 190.901 43.7032 190.901 43.5198V27.1198C190.901 26.9365 190.968 26.7782 191.101 26.6448C191.234 26.5115 191.393 26.4448 191.576 26.4448H196.201C196.384 26.4448 196.543 26.5115 196.676 26.6448C196.809 26.7782 196.876 26.9365 196.876 27.1198V32.1198C197.743 31.3365 198.893 30.9448 200.326 30.9448C201.776 30.9448 203.001 31.4365 204.001 32.4198C205.001 33.4032 205.501 34.8282 205.501 36.6948ZM196.876 38.5198C196.876 39.4865 197.293 39.9698 198.126 39.9698C198.959 39.9698 199.376 39.4865 199.376 38.5198V36.8698C199.376 35.9032 198.959 35.4198 198.126 35.4198C197.343 35.4198 196.926 35.8365 196.876 36.6698V38.5198ZM207.25 40.4698C207.25 38.2198 209.075 36.7782 212.725 36.1448L215.375 35.7198C215.375 35.2198 215.333 34.8865 215.25 34.7198C215.166 34.5365 214.966 34.4448 214.65 34.4448C214.35 34.4448 214.05 34.5782 213.75 34.8448C213.45 35.1115 213.166 35.2448 212.9 35.2448H208.65C208.283 35.2448 208.1 35.0698 208.1 34.7198C208.1 34.3532 208.225 33.9698 208.475 33.5698C208.741 33.1532 209.116 32.7448 209.6 32.3448C210.1 31.9448 210.791 31.6115 211.675 31.3448C212.575 31.0782 213.575 30.9448 214.675 30.9448C216.908 30.9448 218.583 31.4115 219.7 32.3448C220.816 33.2782 221.375 34.6115 221.375 36.3448V43.5198C221.375 43.7032 221.308 43.8615 221.175 43.9948C221.041 44.1282 220.883 44.1948 220.7 44.1948H216.325C216.141 44.1948 215.983 44.1282 215.85 43.9948C215.716 43.8615 215.65 43.7032 215.65 43.5198V42.8198C214.866 43.9032 213.725 44.4448 212.225 44.4448C210.725 44.4448 209.516 44.0698 208.6 43.3198C207.7 42.5532 207.25 41.6032 207.25 40.4698ZM213.825 40.7448C214.908 40.7448 215.45 40.0948 215.45 38.7948L213.975 39.1198C213.241 39.2865 212.875 39.5948 212.875 40.0448C212.875 40.2448 212.958 40.4115 213.125 40.5448C213.291 40.6782 213.525 40.7448 213.825 40.7448ZM229.213 31.8698V32.7448C230.379 31.7115 231.679 31.1948 233.113 31.1948H234.313C234.496 31.1948 234.654 31.2615 234.788 31.3948C234.921 31.5282 234.988 31.6865 234.988 31.8698V35.7698C234.988 35.9532 234.921 36.1115 234.788 36.2448C234.654 36.3782 234.496 36.4448 234.313 36.4448H231.088C230.638 36.4448 230.279 36.5532 230.013 36.7698C229.763 36.9698 229.621 37.2448 229.588 37.5948V43.5198C229.588 43.7032 229.521 43.8615 229.388 43.9948C229.254 44.1282 229.096 44.1948 228.913 44.1948H224.163C223.979 44.1948 223.821 44.1282 223.688 43.9948C223.554 43.8615 223.488 43.7032 223.488 43.5198V31.8698C223.488 31.6865 223.554 31.5282 223.688 31.3948C223.821 31.2615 223.979 31.1948 224.163 31.1948H228.538C228.721 31.1948 228.879 31.2615 229.013 31.3948C229.146 31.5282 229.213 31.6865 229.213 31.8698ZM242.145 44.1948H237.67C237.486 44.1948 237.328 44.1282 237.195 43.9948C237.061 43.8615 236.995 43.7032 236.995 43.5198V31.8698C236.995 31.6865 237.061 31.5282 237.195 31.3948C237.328 31.2615 237.486 31.1948 237.67 31.1948H242.145C242.328 31.1948 242.486 31.2615 242.62 31.3948C242.753 31.5282 242.82 31.6865 242.82 31.8698V43.5198C242.82 43.7032 242.753 43.8615 242.62 43.9948C242.486 44.1282 242.328 44.1948 242.145 44.1948ZM242.695 26.3698V29.3948C242.695 29.5782 242.628 29.7365 242.495 29.8698C242.361 30.0032 242.203 30.0698 242.02 30.0698H237.795C237.611 30.0698 237.453 30.0032 237.32 29.8698C237.186 29.7365 237.12 29.5782 237.12 29.3948V26.3698C237.12 26.1865 237.186 26.0282 237.32 25.8948C237.453 25.7615 237.611 25.6948 237.795 25.6948H242.02C242.203 25.6948 242.361 25.7615 242.495 25.8948C242.628 26.0282 242.695 26.1865 242.695 26.3698ZM251.07 36.8198V38.5698C251.07 39.1365 251.145 39.5448 251.295 39.7948C251.445 40.0448 251.678 40.1698 251.995 40.1698C252.311 40.1698 252.528 40.1198 252.645 40.0198C252.761 39.9032 252.878 39.6948 252.995 39.3948C253.128 39.0782 253.37 38.9198 253.72 38.9198H258.595C258.778 38.9198 258.936 38.9865 259.07 39.1198C259.203 39.2532 259.27 39.4282 259.27 39.6448C259.27 39.8615 259.195 40.1532 259.045 40.5198C258.895 40.8865 258.636 41.3032 258.27 41.7698C257.903 42.2365 257.453 42.6698 256.92 43.0698C256.386 43.4532 255.686 43.7782 254.82 44.0448C253.953 44.3115 252.995 44.4448 251.945 44.4448C249.861 44.4448 248.17 43.9032 246.87 42.8198C245.586 41.7198 244.945 40.2032 244.945 38.2698V37.1198C244.945 35.1865 245.586 33.6782 246.87 32.5948C248.17 31.4948 249.861 30.9448 251.945 30.9448C253.178 30.9448 254.295 31.1365 255.295 31.5198C256.295 31.8865 257.061 32.3448 257.595 32.8948C258.145 33.4282 258.561 33.9532 258.845 34.4698C259.128 34.9865 259.27 35.3865 259.27 35.6698C259.27 35.9365 259.203 36.1365 259.07 36.2698C258.936 36.4032 258.778 36.4698 258.595 36.4698H253.72C253.403 36.4698 253.161 36.3032 252.995 35.9698C252.761 35.4698 252.453 35.2198 252.07 35.2198C251.403 35.2198 251.07 35.7532 251.07 36.8198ZM117.256 67.8198V69.5698C117.256 70.1365 117.331 70.5448 117.481 70.7948C117.631 71.0448 117.865 71.1698 118.181 71.1698C118.498 71.1698 118.715 71.1198 118.831 71.0198C118.948 70.9032 119.065 70.6948 119.181 70.3948C119.315 70.0782 119.556 69.9198 119.906 69.9198H124.781C124.965 69.9198 125.123 69.9865 125.256 70.1198C125.39 70.2532 125.456 70.4282 125.456 70.6448C125.456 70.8615 125.381 71.1532 125.231 71.5198C125.081 71.8865 124.823 72.3032 124.456 72.7698C124.09 73.2365 123.64 73.6698 123.106 74.0698C122.573 74.4532 121.873 74.7782 121.006 75.0448C120.14 75.3115 119.181 75.4448 118.131 75.4448C116.048 75.4448 114.356 74.9032 113.056 73.8198C111.773 72.7198 111.131 71.2032 111.131 69.2698V68.1198C111.131 66.1865 111.773 64.6782 113.056 63.5948C114.356 62.4948 116.048 61.9448 118.131 61.9448C119.365 61.9448 120.481 62.1365 121.481 62.5198C122.481 62.8865 123.248 63.3448 123.781 63.8948C124.331 64.4282 124.748 64.9532 125.031 65.4698C125.315 65.9865 125.456 66.3865 125.456 66.6698C125.456 66.9365 125.39 67.1365 125.256 67.2698C125.123 67.4032 124.965 67.4698 124.781 67.4698H119.906C119.59 67.4698 119.348 67.3032 119.181 66.9698C118.948 66.4698 118.64 66.2198 118.256 66.2198C117.59 66.2198 117.256 66.7532 117.256 67.8198ZM133.674 67.7948V74.5198C133.674 74.7032 133.607 74.8615 133.474 74.9948C133.34 75.1282 133.182 75.1948 132.999 75.1948H128.124C127.94 75.1948 127.782 75.1282 127.649 74.9948C127.515 74.8615 127.449 74.7032 127.449 74.5198V58.1198C127.449 57.9365 127.515 57.7782 127.649 57.6448C127.782 57.5115 127.94 57.4448 128.124 57.4448H132.999C133.182 57.4448 133.34 57.5115 133.474 57.6448C133.607 57.7782 133.674 57.9365 133.674 58.1198V63.4948C134.624 62.4615 135.84 61.9448 137.324 61.9448C138.807 61.9448 140.032 62.4282 140.999 63.3948C141.965 64.3615 142.449 65.7698 142.449 67.6198V74.4948C142.449 74.6782 142.382 74.8365 142.249 74.9698C142.115 75.1032 141.957 75.1698 141.774 75.1698H136.874C136.69 75.1698 136.532 75.1032 136.399 74.9698C136.265 74.8365 136.199 74.6782 136.199 74.4948V67.7948C136.199 66.8782 135.774 66.4198 134.924 66.4198C134.09 66.4198 133.674 66.8782 133.674 67.7948ZM144.457 71.4698C144.457 69.2198 146.282 67.7782 149.932 67.1448L152.582 66.7198C152.582 66.2198 152.54 65.8865 152.457 65.7198C152.373 65.5365 152.173 65.4448 151.857 65.4448C151.557 65.4448 151.257 65.5782 150.957 65.8448C150.657 66.1115 150.373 66.2448 150.107 66.2448H145.857C145.49 66.2448 145.307 66.0698 145.307 65.7198C145.307 65.3532 145.432 64.9698 145.682 64.5698C145.948 64.1532 146.323 63.7448 146.807 63.3448C147.307 62.9448 147.998 62.6115 148.882 62.3448C149.782 62.0782 150.782 61.9448 151.882 61.9448C154.115 61.9448 155.79 62.4115 156.907 63.3448C158.023 64.2782 158.582 65.6115 158.582 67.3448V74.5198C158.582 74.7032 158.515 74.8615 158.382 74.9948C158.248 75.1282 158.09 75.1948 157.907 75.1948H153.532C153.348 75.1948 153.19 75.1282 153.057 74.9948C152.923 74.8615 152.857 74.7032 152.857 74.5198V73.8198C152.073 74.9032 150.932 75.4448 149.432 75.4448C147.932 75.4448 146.723 75.0698 145.807 74.3198C144.907 73.5532 144.457 72.6032 144.457 71.4698ZM151.032 71.7448C152.115 71.7448 152.657 71.0948 152.657 69.7948L151.182 70.1198C150.448 70.2865 150.082 70.5948 150.082 71.0448C150.082 71.2448 150.165 71.4115 150.332 71.5448C150.498 71.6782 150.732 71.7448 151.032 71.7448ZM175.52 66.4198C175.253 66.4198 175.02 66.5198 174.82 66.7198C174.636 66.9198 174.545 67.2198 174.545 67.6198V74.5198C174.545 74.7032 174.478 74.8615 174.345 74.9948C174.211 75.1282 174.053 75.1948 173.87 75.1948H169.47C169.286 75.1948 169.128 75.1282 168.995 74.9948C168.861 74.8615 168.795 74.7032 168.795 74.5198V67.7948C168.795 66.8782 168.461 66.4198 167.795 66.4198C167.511 66.4198 167.27 66.5282 167.07 66.7448C166.886 66.9448 166.795 67.2282 166.795 67.5948V74.5198C166.795 74.7032 166.728 74.8615 166.595 74.9948C166.461 75.1282 166.303 75.1948 166.12 75.1948H161.62C161.436 75.1948 161.278 75.1282 161.145 74.9948C161.011 74.8615 160.945 74.7032 160.945 74.5198V62.8698C160.945 62.6865 161.011 62.5282 161.145 62.3948C161.278 62.2615 161.436 62.1948 161.62 62.1948H165.745C165.928 62.1948 166.086 62.2615 166.22 62.3948C166.353 62.5282 166.42 62.6865 166.42 62.8698V63.6948C166.753 63.2615 167.228 62.8698 167.845 62.5198C168.528 62.1365 169.295 61.9448 170.145 61.9448C171.978 61.9448 173.211 62.6282 173.845 63.9948C174.245 63.4115 174.795 62.9282 175.495 62.5448C176.195 62.1448 176.92 61.9448 177.67 61.9448C179.02 61.9448 180.12 62.4198 180.97 63.3698C181.836 64.3198 182.27 65.7365 182.27 67.6198V74.5198C182.27 74.7032 182.203 74.8615 182.07 74.9948C181.936 75.1282 181.778 75.1948 181.595 75.1948H177.195C177.011 75.1948 176.853 75.1282 176.72 74.9948C176.586 74.8615 176.52 74.7032 176.52 74.5198V67.7948C176.52 66.8782 176.186 66.4198 175.52 66.4198ZM199.251 67.6948V69.6698C199.251 71.6365 198.759 73.0948 197.776 74.0448C196.793 74.9782 195.509 75.4448 193.926 75.4448C192.343 75.4448 191.118 74.8865 190.251 73.7698V74.5198C190.251 74.7032 190.184 74.8615 190.051 74.9948C189.918 75.1282 189.759 75.1948 189.576 75.1948H185.326C185.143 75.1948 184.984 75.1282 184.851 74.9948C184.718 74.8615 184.651 74.7032 184.651 74.5198V58.1198C184.651 57.9365 184.718 57.7782 184.851 57.6448C184.984 57.5115 185.143 57.4448 185.326 57.4448H189.951C190.134 57.4448 190.293 57.5115 190.426 57.6448C190.559 57.7782 190.626 57.9365 190.626 58.1198V63.1198C191.493 62.3365 192.643 61.9448 194.076 61.9448C195.526 61.9448 196.751 62.4365 197.751 63.4198C198.751 64.4032 199.251 65.8282 199.251 67.6948ZM190.626 69.5198C190.626 70.4865 191.043 70.9698 191.876 70.9698C192.709 70.9698 193.126 70.4865 193.126 69.5198V67.8698C193.126 66.9032 192.709 66.4198 191.876 66.4198C191.093 66.4198 190.676 66.8365 190.626 67.6698V69.5198ZM214.575 70.1698H207.125V70.2948C207.125 71.3115 207.45 71.8198 208.1 71.8198C208.283 71.8198 208.508 71.6865 208.775 71.4198C209.041 71.1532 209.333 71.0198 209.65 71.0198H214.375C214.741 71.0198 214.925 71.2032 214.925 71.5698C214.925 72.3865 214.308 73.2365 213.075 74.1198C211.858 75.0032 210.2 75.4448 208.1 75.4448C206.016 75.4448 204.308 74.9032 202.975 73.8198C201.658 72.7198 201 71.2115 201 69.2948V68.0948C201 66.2782 201.675 64.8032 203.025 63.6698C204.375 62.5198 206.141 61.9448 208.325 61.9448C210.525 61.9448 212.225 62.5865 213.425 63.8698C214.641 65.1532 215.25 66.7782 215.25 68.7448V69.4948C215.25 69.6782 215.183 69.8365 215.05 69.9698C214.916 70.1032 214.758 70.1698 214.575 70.1698ZM209.125 66.9448C209.125 65.9448 208.791 65.4448 208.125 65.4448C207.458 65.4448 207.125 65.9448 207.125 66.9448V67.0448H209.125V66.9448ZM222.841 62.8698V63.7448C224.007 62.7115 225.307 62.1948 226.741 62.1948H227.941C228.124 62.1948 228.282 62.2615 228.416 62.3948C228.549 62.5282 228.616 62.6865 228.616 62.8698V66.7698C228.616 66.9532 228.549 67.1115 228.416 67.2448C228.282 67.3782 228.124 67.4448 227.941 67.4448H224.716C224.266 67.4448 223.907 67.5532 223.641 67.7698C223.391 67.9698 223.249 68.2448 223.216 68.5948V74.5198C223.216 74.7032 223.149 74.8615 223.016 74.9948C222.882 75.1282 222.724 75.1948 222.541 75.1948H217.791C217.607 75.1948 217.449 75.1282 217.316 74.9948C217.182 74.8615 217.116 74.7032 217.116 74.5198V62.8698C217.116 62.6865 217.182 62.5282 217.316 62.3948C217.449 62.2615 217.607 62.1948 217.791 62.1948H222.166C222.349 62.1948 222.507 62.2615 222.641 62.3948C222.774 62.5282 222.841 62.6865 222.841 62.8698Z" fill="#2A2727"/>
<path d="M39.4243 72.6311C28.9314 66.573 20.9168 58.6635 16.4081 50.843C11.8768 42.9833 11.0247 35.5061 14.2088 29.9911C17.3929 24.4761 24.2944 21.4754 33.3667 21.4698C42.3938 21.4642 53.251 24.4503 63.7439 30.5084C74.2368 36.5664 82.2513 44.476 86.7601 52.2965C91.2914 60.1562 92.1435 67.6334 88.9594 73.1484C85.7753 78.6634 78.8738 81.6641 69.8014 81.6697C60.7744 81.6752 49.9172 78.6892 39.4243 72.6311Z" stroke="#787878" stroke-width="3"/>
<rect x="40.0227" y="8.40906" width="63.5452" height="63.5452" rx="10" transform="rotate(30 40.0227 8.40906)" fill="#181818" fill-opacity="0.3"/>
<rect x="40.0227" y="8.40906" width="63.5452" height="63.5452" rx="10" transform="rotate(30 40.0227 8.40906)" fill="url(#paint0_linear)" fill-opacity="0.45"/>
<circle cx="51.3532" cy="51.7663" r="8.57143" fill="#F6F6F6"/>
<path d="M72.3446 64.2366C66.0339 74.5796 57.9323 82.4 50.0048 86.7178C42.0376 91.0572 34.5419 91.7277 29.1057 88.4108C23.6695 85.094 20.8371 78.1217 21.0514 69.0519C21.2648 60.0273 24.5132 49.2458 30.8239 38.9028C37.1346 28.5599 45.2362 20.7395 53.1637 16.4217C61.1309 12.0823 68.6266 11.4118 74.0628 14.7286C79.499 18.0455 82.3314 25.0177 82.1171 34.0876C81.9037 43.1121 78.6553 53.8937 72.3446 64.2366Z" stroke="#787878" stroke-width="3"/>
<path d="M72.3446 64.2366C66.0339 74.5796 57.9323 82.4 50.0048 86.7178C42.0376 91.0572 34.5419 91.7277 29.1057 88.4108C23.6695 85.094 20.8371 78.1217 21.0514 69.0519C21.2648 60.0273 24.5132 49.2458 30.8239 38.9028C37.1346 28.5599 45.2362 20.7395 53.1637 16.4217C61.1309 12.0823 68.6266 11.4118 74.0628 14.7286C79.499 18.0455 82.3314 25.0177 82.1171 34.0876C81.9037 43.1121 78.6553 53.8937 72.3446 64.2366Z" stroke="url(#paint1_linear)" stroke-width="3"/>
</g>
<defs>
<linearGradient id="paint0_linear" x1="71.7953" y1="8.40906" x2="71.7953" y2="71.9543" gradientUnits="userSpaceOnUse">
<stop stop-color="white"/>
<stop offset="1" stop-color="white" stop-opacity="0"/>
</linearGradient>
<linearGradient id="paint1_linear" x1="74.8441" y1="13.4482" x2="28.3244" y2="89.6913" gradientUnits="userSpaceOnUse">
<stop stop-color="#949494"/>
<stop offset="1" stop-color="white" stop-opacity="0"/>
</linearGradient>
<clipPath id="clip0">
<rect width="260" height="103" fill="white"/>
</clipPath>
</defs>
</svg>
