<svg width="260" height="103" viewBox="0 0 260 103" fill="none" xmlns="http://www.w3.org/2000/svg">
<g clip-path="url(#clip0)">
<path d="M113.481 37.3858V44.1108C113.481 44.2941 113.415 44.4524 113.281 44.5858C113.148 44.7191 112.99 44.7858 112.806 44.7858H107.931C107.748 44.7858 107.59 44.7191 107.456 44.5858C107.323 44.4524 107.256 44.2941 107.256 44.1108V27.7108C107.256 27.5274 107.323 27.3691 107.456 27.2358C107.59 27.1024 107.748 27.0358 107.931 27.0358H112.806C112.99 27.0358 113.148 27.1024 113.281 27.2358C113.415 27.3691 113.481 27.5274 113.481 27.7108V33.0858C114.431 32.0524 115.648 31.5358 117.131 31.5358C118.615 31.5358 119.84 32.0191 120.806 32.9858C121.773 33.9524 122.256 35.3608 122.256 37.2108V44.0858C122.256 44.2691 122.19 44.4274 122.056 44.5608C121.923 44.6941 121.765 44.7608 121.581 44.7608H116.681C116.498 44.7608 116.34 44.6941 116.206 44.5608C116.073 44.4274 116.006 44.2691 116.006 44.0858V37.3858C116.006 36.4691 115.581 36.0108 114.731 36.0108C113.898 36.0108 113.481 36.4691 113.481 37.3858ZM124.389 31.7858H128.614C128.997 31.7858 129.264 31.9858 129.414 32.3858L131.464 38.0858L133.589 32.3858C133.756 31.9858 134.039 31.7858 134.439 31.7858H138.614C138.764 31.7858 138.897 31.8441 139.014 31.9608C139.131 32.0608 139.189 32.1691 139.189 32.2858C139.189 32.4024 139.181 32.4941 139.164 32.5608L132.114 48.9358C131.947 49.3358 131.656 49.5358 131.239 49.5358H127.139C126.989 49.5358 126.856 49.4858 126.739 49.3858C126.639 49.2858 126.589 49.1608 126.589 49.0108C126.589 48.8774 126.597 48.7941 126.614 48.7608L128.614 43.9608L123.789 32.5608C123.772 32.5108 123.764 32.4524 123.764 32.3858C123.831 31.9858 124.039 31.7858 124.389 31.7858ZM155.279 37.3108V39.2858C155.279 41.1524 154.779 42.5774 153.779 43.5608C152.779 44.5441 151.554 45.0358 150.104 45.0358C148.671 45.0358 147.521 44.6441 146.654 43.8608V48.8608C146.654 49.0441 146.587 49.2024 146.454 49.3358C146.321 49.4691 146.162 49.5358 145.979 49.5358H141.354C141.171 49.5358 141.012 49.4691 140.879 49.3358C140.746 49.2024 140.679 49.0441 140.679 48.8608V32.4608C140.679 32.2774 140.746 32.1191 140.879 31.9858C141.012 31.8524 141.171 31.7858 141.354 31.7858H145.604C145.787 31.7858 145.946 31.8524 146.079 31.9858C146.212 32.1191 146.279 32.2774 146.279 32.4608V33.2108C147.146 32.0941 148.371 31.5358 149.954 31.5358C151.537 31.5358 152.821 32.0108 153.804 32.9608C154.787 33.8941 155.279 35.3441 155.279 37.3108ZM146.654 37.4608V39.3108C146.704 40.1441 147.121 40.5608 147.904 40.5608C148.737 40.5608 149.154 40.0774 149.154 39.1108V37.4608C149.154 36.4941 148.737 36.0108 147.904 36.0108C147.071 36.0108 146.654 36.4941 146.654 37.4608ZM170.603 39.7608H163.153V39.8858C163.153 40.9024 163.478 41.4108 164.128 41.4108C164.311 41.4108 164.536 41.2774 164.803 41.0108C165.069 40.7441 165.361 40.6108 165.678 40.6108H170.403C170.769 40.6108 170.953 40.7941 170.953 41.1608C170.953 41.9774 170.336 42.8274 169.103 43.7108C167.886 44.5941 166.228 45.0358 164.128 45.0358C162.044 45.0358 160.336 44.4941 159.003 43.4108C157.686 42.3108 157.028 40.8024 157.028 38.8858V37.6858C157.028 35.8691 157.703 34.3941 159.053 33.2608C160.403 32.1108 162.169 31.5358 164.353 31.5358C166.553 31.5358 168.253 32.1774 169.453 33.4608C170.669 34.7441 171.278 36.3691 171.278 38.3358V39.0858C171.278 39.2691 171.211 39.4274 171.078 39.5608C170.944 39.6941 170.786 39.7608 170.603 39.7608ZM165.153 36.5358C165.153 35.5358 164.819 35.0358 164.153 35.0358C163.486 35.0358 163.153 35.5358 163.153 36.5358V36.6358H165.153V36.5358ZM178.869 32.4608V33.3358C180.036 32.3024 181.336 31.7858 182.769 31.7858H183.969C184.152 31.7858 184.311 31.8524 184.444 31.9858C184.577 32.1191 184.644 32.2774 184.644 32.4608V36.3608C184.644 36.5441 184.577 36.7024 184.444 36.8358C184.311 36.9691 184.152 37.0358 183.969 37.0358H180.744C180.294 37.0358 179.936 37.1441 179.669 37.3608C179.419 37.5608 179.277 37.8358 179.244 38.1858V44.1108C179.244 44.2941 179.177 44.4524 179.044 44.5858C178.911 44.7191 178.752 44.7858 178.569 44.7858H173.819C173.636 44.7858 173.477 44.7191 173.344 44.5858C173.211 44.4524 173.144 44.2941 173.144 44.1108V32.4608C173.144 32.2774 173.211 32.1191 173.344 31.9858C173.477 31.8524 173.636 31.7858 173.819 31.7858H178.194C178.377 31.7858 178.536 31.8524 178.669 31.9858C178.802 32.1191 178.869 32.2774 178.869 32.4608ZM201.251 37.2858V39.2608C201.251 41.2274 200.759 42.6858 199.776 43.6358C198.792 44.5691 197.509 45.0358 195.926 45.0358C194.342 45.0358 193.117 44.4774 192.251 43.3608V44.1108C192.251 44.2941 192.184 44.4524 192.051 44.5858C191.917 44.7191 191.759 44.7858 191.576 44.7858H187.326C187.142 44.7858 186.984 44.7191 186.851 44.5858C186.717 44.4524 186.651 44.2941 186.651 44.1108V27.7108C186.651 27.5274 186.717 27.3691 186.851 27.2358C186.984 27.1024 187.142 27.0358 187.326 27.0358H191.951C192.134 27.0358 192.292 27.1024 192.426 27.2358C192.559 27.3691 192.626 27.5274 192.626 27.7108V32.7108C193.492 31.9274 194.642 31.5358 196.076 31.5358C197.526 31.5358 198.751 32.0274 199.751 33.0108C200.751 33.9941 201.251 35.4191 201.251 37.2858ZM192.626 39.1108C192.626 40.0774 193.042 40.5608 193.876 40.5608C194.709 40.5608 195.126 40.0774 195.126 39.1108V37.4608C195.126 36.4941 194.709 36.0108 193.876 36.0108C193.092 36.0108 192.676 36.4274 192.626 37.2608V39.1108ZM202.999 41.0608C202.999 38.8108 204.824 37.3691 208.474 36.7358L211.124 36.3108C211.124 35.8108 211.083 35.4774 210.999 35.3108C210.916 35.1274 210.716 35.0358 210.399 35.0358C210.099 35.0358 209.799 35.1691 209.499 35.4358C209.199 35.7024 208.916 35.8358 208.649 35.8358H204.399C204.033 35.8358 203.849 35.6608 203.849 35.3108C203.849 34.9441 203.974 34.5608 204.224 34.1608C204.491 33.7441 204.866 33.3358 205.349 32.9358C205.849 32.5358 206.541 32.2024 207.424 31.9358C208.324 31.6691 209.324 31.5358 210.424 31.5358C212.658 31.5358 214.333 32.0024 215.449 32.9358C216.566 33.8691 217.124 35.2024 217.124 36.9358V44.1108C217.124 44.2941 217.058 44.4524 216.924 44.5858C216.791 44.7191 216.633 44.7858 216.449 44.7858H212.074C211.891 44.7858 211.733 44.7191 211.599 44.5858C211.466 44.4524 211.399 44.2941 211.399 44.1108V43.4108C210.616 44.4941 209.474 45.0358 207.974 45.0358C206.474 45.0358 205.266 44.6608 204.349 43.9108C203.449 43.1441 202.999 42.1941 202.999 41.0608ZM209.574 41.3358C210.658 41.3358 211.199 40.6858 211.199 39.3858L209.724 39.7108C208.991 39.8774 208.624 40.1858 208.624 40.6358C208.624 40.8358 208.708 41.0024 208.874 41.1358C209.041 41.2691 209.274 41.3358 209.574 41.3358ZM224.963 32.4608V33.3358C226.129 32.3024 227.429 31.7858 228.863 31.7858H230.063C230.246 31.7858 230.404 31.8524 230.538 31.9858C230.671 32.1191 230.738 32.2774 230.738 32.4608V36.3608C230.738 36.5441 230.671 36.7024 230.538 36.8358C230.404 36.9691 230.246 37.0358 230.063 37.0358H226.838C226.388 37.0358 226.029 37.1441 225.763 37.3608C225.513 37.5608 225.371 37.8358 225.338 38.1858V44.1108C225.338 44.2941 225.271 44.4524 225.138 44.5858C225.004 44.7191 224.846 44.7858 224.663 44.7858H219.913C219.729 44.7858 219.571 44.7191 219.438 44.5858C219.304 44.4524 219.238 44.2941 219.238 44.1108V32.4608C219.238 32.2774 219.304 32.1191 219.438 31.9858C219.571 31.8524 219.729 31.7858 219.913 31.7858H224.288C224.471 31.7858 224.629 31.8524 224.763 31.9858C224.896 32.1191 224.963 32.2774 224.963 32.4608ZM237.895 44.7858H233.42C233.236 44.7858 233.078 44.7191 232.945 44.5858C232.811 44.4524 232.745 44.2941 232.745 44.1108V32.4608C232.745 32.2774 232.811 32.1191 232.945 31.9858C233.078 31.8524 233.236 31.7858 233.42 31.7858H237.895C238.078 31.7858 238.236 31.8524 238.37 31.9858C238.503 32.1191 238.57 32.2774 238.57 32.4608V44.1108C238.57 44.2941 238.503 44.4524 238.37 44.5858C238.236 44.7191 238.078 44.7858 237.895 44.7858ZM238.445 26.9608V29.9858C238.445 30.1691 238.378 30.3274 238.245 30.4608C238.111 30.5941 237.953 30.6608 237.77 30.6608H233.545C233.361 30.6608 233.203 30.5941 233.07 30.4608C232.936 30.3274 232.87 30.1691 232.87 29.9858V26.9608C232.87 26.7774 232.936 26.6191 233.07 26.4858C233.203 26.3524 233.361 26.2858 233.545 26.2858H237.77C237.953 26.2858 238.111 26.3524 238.245 26.4858C238.378 26.6191 238.445 26.7774 238.445 26.9608ZM246.82 37.4108V39.1608C246.82 39.7274 246.895 40.1358 247.045 40.3858C247.195 40.6358 247.428 40.7608 247.745 40.7608C248.061 40.7608 248.278 40.7108 248.395 40.6108C248.511 40.4941 248.628 40.2858 248.745 39.9858C248.878 39.6691 249.12 39.5108 249.47 39.5108H254.345C254.528 39.5108 254.686 39.5774 254.82 39.7108C254.953 39.8441 255.02 40.0191 255.02 40.2358C255.02 40.4524 254.945 40.7441 254.795 41.1108C254.645 41.4774 254.386 41.8941 254.02 42.3608C253.653 42.8274 253.203 43.2608 252.67 43.6608C252.136 44.0441 251.436 44.3691 250.57 44.6358C249.703 44.9024 248.745 45.0358 247.695 45.0358C245.611 45.0358 243.92 44.4941 242.62 43.4108C241.336 42.3108 240.695 40.7941 240.695 38.8608V37.7108C240.695 35.7774 241.336 34.2691 242.62 33.1858C243.92 32.0858 245.611 31.5358 247.695 31.5358C248.928 31.5358 250.045 31.7274 251.045 32.1108C252.045 32.4774 252.811 32.9358 253.345 33.4858C253.895 34.0191 254.311 34.5441 254.595 35.0608C254.878 35.5774 255.02 35.9774 255.02 36.2608C255.02 36.5274 254.953 36.7274 254.82 36.8608C254.686 36.9941 254.528 37.0608 254.345 37.0608H249.47C249.153 37.0608 248.911 36.8941 248.745 36.5608C248.511 36.0608 248.203 35.8108 247.82 35.8108C247.153 35.8108 246.82 36.3441 246.82 37.4108ZM113.006 68.4108V70.1608C113.006 70.7274 113.081 71.1358 113.231 71.3858C113.381 71.6358 113.615 71.7608 113.931 71.7608C114.248 71.7608 114.465 71.7108 114.581 71.6108C114.698 71.4941 114.815 71.2858 114.931 70.9858C115.065 70.6691 115.306 70.5108 115.656 70.5108H120.531C120.715 70.5108 120.873 70.5774 121.006 70.7108C121.14 70.8441 121.206 71.0191 121.206 71.2358C121.206 71.4524 121.131 71.7441 120.981 72.1108C120.831 72.4774 120.573 72.8941 120.206 73.3608C119.84 73.8274 119.39 74.2608 118.856 74.6608C118.323 75.0441 117.623 75.3691 116.756 75.6358C115.89 75.9024 114.931 76.0358 113.881 76.0358C111.798 76.0358 110.106 75.4941 108.806 74.4108C107.523 73.3108 106.881 71.7941 106.881 69.8608V68.7108C106.881 66.7774 107.523 65.2691 108.806 64.1858C110.106 63.0858 111.798 62.5358 113.881 62.5358C115.115 62.5358 116.231 62.7274 117.231 63.1108C118.231 63.4774 118.998 63.9358 119.531 64.4858C120.081 65.0191 120.498 65.5441 120.781 66.0608C121.065 66.5774 121.206 66.9774 121.206 67.2608C121.206 67.5274 121.14 67.7274 121.006 67.8608C120.873 67.9941 120.715 68.0608 120.531 68.0608H115.656C115.34 68.0608 115.098 67.8941 114.931 67.5608C114.698 67.0608 114.39 66.8108 114.006 66.8108C113.34 66.8108 113.006 67.3441 113.006 68.4108ZM129.424 68.3858V75.1108C129.424 75.2941 129.357 75.4524 129.224 75.5858C129.09 75.7191 128.932 75.7858 128.749 75.7858H123.874C123.69 75.7858 123.532 75.7191 123.399 75.5858C123.265 75.4524 123.199 75.2941 123.199 75.1108V58.7108C123.199 58.5274 123.265 58.3691 123.399 58.2358C123.532 58.1024 123.69 58.0358 123.874 58.0358H128.749C128.932 58.0358 129.09 58.1024 129.224 58.2358C129.357 58.3691 129.424 58.5274 129.424 58.7108V64.0858C130.374 63.0524 131.59 62.5358 133.074 62.5358C134.557 62.5358 135.782 63.0191 136.749 63.9858C137.715 64.9524 138.199 66.3608 138.199 68.2108V75.0858C138.199 75.2691 138.132 75.4274 137.999 75.5608C137.865 75.6941 137.707 75.7608 137.524 75.7608H132.624C132.44 75.7608 132.282 75.6941 132.149 75.5608C132.015 75.4274 131.949 75.2691 131.949 75.0858V68.3858C131.949 67.4691 131.524 67.0108 130.674 67.0108C129.84 67.0108 129.424 67.4691 129.424 68.3858ZM140.206 72.0608C140.206 69.8108 142.031 68.3691 145.681 67.7358L148.331 67.3108C148.331 66.8108 148.29 66.4774 148.206 66.3108C148.123 66.1274 147.923 66.0358 147.606 66.0358C147.306 66.0358 147.006 66.1691 146.706 66.4358C146.406 66.7024 146.123 66.8358 145.856 66.8358H141.606C141.24 66.8358 141.056 66.6608 141.056 66.3108C141.056 65.9441 141.181 65.5608 141.431 65.1608C141.698 64.7441 142.073 64.3358 142.556 63.9358C143.056 63.5358 143.748 63.2024 144.631 62.9358C145.531 62.6691 146.531 62.5358 147.631 62.5358C149.865 62.5358 151.54 63.0024 152.656 63.9358C153.773 64.8691 154.331 66.2024 154.331 67.9358V75.1108C154.331 75.2941 154.265 75.4524 154.131 75.5858C153.998 75.7191 153.84 75.7858 153.656 75.7858H149.281C149.098 75.7858 148.94 75.7191 148.806 75.5858C148.673 75.4524 148.606 75.2941 148.606 75.1108V74.4108C147.823 75.4941 146.681 76.0358 145.181 76.0358C143.681 76.0358 142.473 75.6608 141.556 74.9108C140.656 74.1441 140.206 73.1941 140.206 72.0608ZM146.781 72.3358C147.865 72.3358 148.406 71.6858 148.406 70.3858L146.931 70.7108C146.198 70.8774 145.831 71.1858 145.831 71.6358C145.831 71.8358 145.915 72.0024 146.081 72.1358C146.248 72.2691 146.481 72.3358 146.781 72.3358ZM171.27 67.0108C171.003 67.0108 170.77 67.1108 170.57 67.3108C170.386 67.5108 170.295 67.8108 170.295 68.2108V75.1108C170.295 75.2941 170.228 75.4524 170.095 75.5858C169.961 75.7191 169.803 75.7858 169.62 75.7858H165.22C165.036 75.7858 164.878 75.7191 164.745 75.5858C164.611 75.4524 164.545 75.2941 164.545 75.1108V68.3858C164.545 67.4691 164.211 67.0108 163.545 67.0108C163.261 67.0108 163.02 67.1191 162.82 67.3358C162.636 67.5358 162.545 67.8191 162.545 68.1858V75.1108C162.545 75.2941 162.478 75.4524 162.345 75.5858C162.211 75.7191 162.053 75.7858 161.87 75.7858H157.37C157.186 75.7858 157.028 75.7191 156.895 75.5858C156.761 75.4524 156.695 75.2941 156.695 75.1108V63.4608C156.695 63.2774 156.761 63.1191 156.895 62.9858C157.028 62.8524 157.186 62.7858 157.37 62.7858H161.495C161.678 62.7858 161.836 62.8524 161.97 62.9858C162.103 63.1191 162.17 63.2774 162.17 63.4608V64.2858C162.503 63.8524 162.978 63.4608 163.595 63.1108C164.278 62.7274 165.045 62.5358 165.895 62.5358C167.728 62.5358 168.961 63.2191 169.595 64.5858C169.995 64.0024 170.545 63.5191 171.245 63.1358C171.945 62.7358 172.67 62.5358 173.42 62.5358C174.77 62.5358 175.87 63.0108 176.72 63.9608C177.586 64.9108 178.02 66.3274 178.02 68.2108V75.1108C178.02 75.2941 177.953 75.4524 177.82 75.5858C177.686 75.7191 177.528 75.7858 177.345 75.7858H172.945C172.761 75.7858 172.603 75.7191 172.47 75.5858C172.336 75.4524 172.27 75.2941 172.27 75.1108V68.3858C172.27 67.4691 171.936 67.0108 171.27 67.0108ZM195.001 68.2858V70.2608C195.001 72.2274 194.509 73.6858 193.526 74.6358C192.542 75.5691 191.259 76.0358 189.676 76.0358C188.092 76.0358 186.867 75.4774 186.001 74.3608V75.1108C186.001 75.2941 185.934 75.4524 185.801 75.5858C185.667 75.7191 185.509 75.7858 185.326 75.7858H181.076C180.892 75.7858 180.734 75.7191 180.601 75.5858C180.467 75.4524 180.401 75.2941 180.401 75.1108V58.7108C180.401 58.5274 180.467 58.3691 180.601 58.2358C180.734 58.1024 180.892 58.0358 181.076 58.0358H185.701C185.884 58.0358 186.042 58.1024 186.176 58.2358C186.309 58.3691 186.376 58.5274 186.376 58.7108V63.7108C187.242 62.9274 188.392 62.5358 189.826 62.5358C191.276 62.5358 192.501 63.0274 193.501 64.0108C194.501 64.9941 195.001 66.4191 195.001 68.2858ZM186.376 70.1108C186.376 71.0774 186.792 71.5608 187.626 71.5608C188.459 71.5608 188.876 71.0774 188.876 70.1108V68.4608C188.876 67.4941 188.459 67.0108 187.626 67.0108C186.842 67.0108 186.426 67.4274 186.376 68.2608V70.1108ZM210.324 70.7608H202.874V70.8858C202.874 71.9024 203.199 72.4108 203.849 72.4108C204.033 72.4108 204.258 72.2774 204.524 72.0108C204.791 71.7441 205.083 71.6108 205.399 71.6108H210.124C210.491 71.6108 210.674 71.7941 210.674 72.1608C210.674 72.9774 210.058 73.8274 208.824 74.7108C207.608 75.5941 205.949 76.0358 203.849 76.0358C201.766 76.0358 200.058 75.4941 198.724 74.4108C197.408 73.3108 196.749 71.8024 196.749 69.8858V68.6858C196.749 66.8691 197.424 65.3941 198.774 64.2608C200.124 63.1108 201.891 62.5358 204.074 62.5358C206.274 62.5358 207.974 63.1774 209.174 64.4608C210.391 65.7441 210.999 67.3691 210.999 69.3358V70.0858C210.999 70.2691 210.933 70.4274 210.799 70.5608C210.666 70.6941 210.508 70.7608 210.324 70.7608ZM204.874 67.5358C204.874 66.5358 204.541 66.0358 203.874 66.0358C203.208 66.0358 202.874 66.5358 202.874 67.5358V67.6358H204.874V67.5358ZM218.591 63.4608V64.3358C219.757 63.3024 221.057 62.7858 222.491 62.7858H223.691C223.874 62.7858 224.032 62.8524 224.166 62.9858C224.299 63.1191 224.366 63.2774 224.366 63.4608V67.3608C224.366 67.5441 224.299 67.7024 224.166 67.8358C224.032 67.9691 223.874 68.0358 223.691 68.0358H220.466C220.016 68.0358 219.657 68.1441 219.391 68.3608C219.141 68.5608 218.999 68.8358 218.966 69.1858V75.1108C218.966 75.2941 218.899 75.4524 218.766 75.5858C218.632 75.7191 218.474 75.7858 218.291 75.7858H213.541C213.357 75.7858 213.199 75.7191 213.066 75.5858C212.932 75.4524 212.866 75.2941 212.866 75.1108V63.4608C212.866 63.2774 212.932 63.1191 213.066 62.9858C213.199 62.8524 213.357 62.7858 213.541 62.7858H217.916C218.099 62.7858 218.257 62.8524 218.391 62.9858C218.524 63.1191 218.591 63.2774 218.591 63.4608Z" fill="#2A2727"/>
<g opacity="0.8">
<rect x="80.0178" y="13.5909" width="63.5452" height="63.5452" rx="16" transform="rotate(90 80.0178 13.5909)" fill="#F4F4F4"/>
<rect x="80.0178" y="13.5909" width="63.5452" height="63.5452" rx="16" transform="rotate(90 80.0178 13.5909)" stroke="#2A2727" stroke-width="3"/>
<rect x="80.0178" y="13.5909" width="63.5452" height="63.5452" rx="16" transform="rotate(90 80.0178 13.5909)" stroke="url(#paint0_linear)" stroke-width="3"/>
<rect x="4.75" y="27.287" width="63.5452" height="63.5452" rx="16" fill="url(#paint1_linear)" fill-opacity="0.3" stroke="#2A2727" stroke-width="3"/>
</g>
<circle cx="42.2547" cy="53.0588" r="8.57143" transform="rotate(60 42.2547 53.0588)" fill="black"/>
<circle cx="42.2547" cy="53.0588" r="8.57143" transform="rotate(60 42.2547 53.0588)" fill="url(#paint2_radial)" fill-opacity="0.2"/>
<circle cx="42.2547" cy="53.0588" r="8.57143" transform="rotate(60 42.2547 53.0588)" fill="url(#paint3_linear)" fill-opacity="0.2"/>
</g>
<defs>
<linearGradient id="paint0_linear" x1="199.518" y1="77.1362" x2="123.518" y2="77.1362" gradientUnits="userSpaceOnUse">
<stop stop-color="white"/>
<stop offset="1" stop-color="white" stop-opacity="0"/>
</linearGradient>
<linearGradient id="paint1_linear" x1="36.5226" y1="27.287" x2="36.5226" y2="90.8323" gradientUnits="userSpaceOnUse">
<stop stop-color="white"/>
<stop offset="1" stop-color="#6D6D6D" stop-opacity="0"/>
</linearGradient>
<radialGradient id="paint2_radial" cx="0" cy="0" r="1" gradientUnits="userSpaceOnUse" gradientTransform="translate(42.2547 53.0588) rotate(90) scale(8.57143)">
<stop stop-color="white"/>
<stop offset="1" stop-color="#D9D9D9"/>
</radialGradient>
<linearGradient id="paint3_linear" x1="42.2547" y1="44.4873" x2="42.2547" y2="61.6302" gradientUnits="userSpaceOnUse">
<stop stop-color="white"/>
<stop offset="1" stop-color="white" stop-opacity="0"/>
</linearGradient>
<clipPath id="clip0">
<rect width="260" height="103" fill="white"/>
</clipPath>
</defs>
</svg>
